<svg xmlns="http://www.w3.org/2000/svg" xmlns:xlink="http://www.w3.org/1999/xlink" width="375" viewBox="0 0 375 375" height="375" version="1.0"><defs><g id="d"><path d="M 62.761719 10.6875 C 60.472656 11.648438 56.65625 12.277344 54.253906 11.15625 C 51.757812 9.953125 52.476562 6.230469 52.855469 4.035156 C 53.609375 -0.523438 55.117188 -5.042969 56.628906 -9.476562 C 57.507812 -11.785156 58.296875 -14.171875 59.167969 -16.5625 C 59.390625 -17.078125 61.261719 -22.617188 61.179688 -22.613281 C 61.011719 -22.605469 60.777344 -22.339844 60.628906 -22 C 63.210938 -28.25 67.761719 -35.277344 66.027344 -42.460938 C 65.273438 -45.515625 62.933594 -48.484375 59.519531 -48.210938 C 56.597656 -48.050781 54.050781 -45.734375 52.148438 -43.789062 C 48.578125 -40.246094 45.707031 -36.15625 43.007812 -31.988281 C 42.695312 -31.554688 41.472656 -29.480469 40.097656 -27.058594 C 40.78125 -28.351562 41.71875 -29.574219 42.488281 -30.789062 C 39.253906 -25.675781 36.453125 -20.332031 33.734375 -14.996094 C 35.636719 -22.964844 39.074219 -30.433594 41.921875 -38.039062 C 43.019531 -40.859375 44.96875 -43.476562 45.980469 -46.378906 C 47.0625 -49.535156 46.09375 -53.414062 43.867188 -55.886719 C 38.972656 -61.222656 32.914062 -51.183594 30.320312 -48.109375 C 25.058594 -41.878906 20.769531 -34.613281 16.804688 -27.617188 C 17.289062 -29.484375 17.523438 -31.257812 18.089844 -33.128906 C 18.796875 -35.511719 19.589844 -37.8125 20.214844 -40.191406 C 20.914062 -42.65625 21.527344 -45.199219 22.144531 -47.660156 C 22.761719 -50.121094 23.417969 -53.421875 22.691406 -55.976562 C 22.171875 -57.789062 21.28125 -60.332031 19.867188 -61.675781 C 17.65625 -63.816406 14.746094 -63.488281 12.121094 -62.507812 C 9.746094 -61.621094 7.722656 -60.339844 5.890625 -58.648438 C 4.941406 -57.675781 4.074219 -56.707031 3.210938 -55.65625 L 2.441406 -54.441406 C 1.976562 -53.746094 2.097656 -53.085938 1.878906 -52.488281 C 1.148438 -50.605469 -0.191406 -49.109375 -0.667969 -47.074219 C -1.128906 -44.789062 -1.121094 -41.609375 0.324219 -39.679688 C 1.042969 -38.800781 2.164062 -38.191406 3.121094 -39.082031 C 3.671875 -39.699219 3.390625 -40.269531 3.4375 -40.941406 C 3.492188 -41.445312 3.667969 -42.792969 3.957031 -43.648438 C 5.234375 -47.816406 7.261719 -52.03125 10.089844 -55.363281 C 11.261719 -56.851562 12.691406 -58.269531 14.5 -58.871094 C 16.96875 -59.59375 17.164062 -57.59375 16.941406 -55.574219 L 16.609375 -52.460938 L 16.5625 -53.292969 C 14.640625 -44.152344 10.425781 -35.550781 7.734375 -26.699219 C 6.382812 -22.359375 4.769531 -18.253906 3.246094 -13.984375 C 1.722656 -9.71875 -0.0078125 -4.6875 -0.00390625 -0.0820312 C 0 1.507812 0.421875 3.074219 1.726562 4.003906 C 3.210938 5.09375 5.382812 5.058594 6.386719 3.496094 C 7.15625 2.285156 7.457031 0.175781 7.882812 -1.1875 C 8.597656 -3.402344 9.230469 -5.613281 10.035156 -7.75 C 10.742188 -10.046875 12.050781 -12.128906 13.1875 -14.28125 C 15.617188 -18.765625 18.050781 -23.253906 20.652344 -27.664062 C 23.097656 -31.898438 25.546875 -36.050781 28.253906 -40.046875 C 30.96875 -43.960938 33.675781 -47.960938 37.359375 -51.007812 C 37.917969 -51.457031 39.832031 -53.152344 40.6875 -52.867188 C 41.367188 -52.652344 40.769531 -51.363281 40.554688 -50.683594 C 39.347656 -46.765625 37.730469 -42.746094 35.835938 -39.125 C 31.449219 -30.683594 26.945312 -21.230469 25.628906 -11.703125 C 25.136719 -8.496094 25.3125 -5.328125 27.949219 -3.042969 C 30.667969 -0.769531 31.46875 -2.902344 32.175781 -5.285156 C 32.738281 -7.242188 34.0625 -8.988281 34.96875 -10.796875 C 36.257812 -13.210938 37.460938 -15.703125 38.828125 -18.203125 C 39.671875 -19.589844 40.238281 -21.460938 41.269531 -22.523438 C 42.925781 -24.371094 44.066406 -26.441406 45.375 -28.523438 C 48.0625 -32.855469 50.761719 -37.019531 54.328125 -40.644531 C 55.199219 -41.53125 57.167969 -43.816406 58.605469 -43.558594 C 60.378906 -43.238281 58.609375 -40.378906 58.753906 -39.300781 L 59.273438 -40.5 C 58.855469 -38.972656 58.433594 -37.523438 57.929688 -36.074219 C 57.839844 -36.152344 58.117188 -37.171875 58.117188 -37.171875 C 57.78125 -37.238281 56.25 -33.136719 56.019531 -32.707031 C 54.914062 -30.050781 53.554688 -27.382812 52.785156 -24.578125 C 52.007812 -22.027344 51.21875 -19.640625 50.265625 -17.160156 L 48.660156 -12.886719 C 48.378906 -11.953125 47.488281 -9.894531 47.792969 -8.90625 C 47.875 -8.910156 47.960938 -8.917969 47.953125 -9 L 47.621094 -7.476562 C 47.683594 -7.8125 47.726562 -8.570312 47.722656 -8.652344 C 47.402344 -8.382812 47.410156 -6.710938 47.410156 -6.710938 C 45.792969 0.40625 45.371094 7.878906 50.550781 13.867188 C 53.054688 16.742188 55.878906 17.925781 59.496094 16.722656 C 61.226562 16.210938 62.847656 15.285156 64.203125 14.039062 C 64.996094 13.242188 67.457031 10.847656 67.050781 9.53125 C 66.726562 8.207031 63.582031 10.390625 62.761719 10.6875 Z M 50.289062 -13.730469 C 50.957031 -15.273438 51.535156 -16.894531 52.117188 -18.515625 C 52.546875 -19.796875 52.757812 -22.066406 53.535156 -23.113281 C 53.792969 -23.042969 53.804688 -22.792969 53.582031 -22.28125 C 53.164062 -19.246094 51.679688 -15.816406 50.5 -12.90625 C 49.550781 -10.425781 48.601562 -7.863281 47.90625 -5.316406 C 48.589844 -8.113281 49.105469 -10.902344 50.289062 -13.730469 Z M 11.957031 -36.640625 C 12.972656 -39.457031 13.730469 -42.429688 14.746094 -45.246094 C 15.183594 -46.441406 15.695312 -47.808594 16.039062 -49.164062 C 15.253906 -45.1875 14.214844 -41.199219 12.585938 -37.34375 C 11.035156 -33.660156 9.648438 -29.902344 8.355469 -26.066406 C 9.496094 -29.644531 10.644531 -33.136719 11.957031 -36.640625 Z M 39.332031 -25.761719 C 37.355469 -22.140625 35.21875 -18.421875 35.21875 -18.421875 C 35.472656 -18.355469 38.277344 -23.695312 39.332031 -25.761719 Z M 51.136719 -42.394531 L 48.230469 -38.972656 C 49.164062 -40.195312 50.105469 -41.335938 51.136719 -42.394531 Z M 47.386719 -2.609375 C 47.132812 -2.679688 47.121094 -2.84375 47.355469 -3.191406 C 47.523438 -3.117188 47.535156 -2.953125 47.386719 -2.609375 Z M 47.449219 -37.925781 L 47.601562 -38.183594 L 47.609375 -38.101562 C 47.757812 -38.445312 47.992188 -38.707031 48.070312 -38.796875 L 48.230469 -38.972656 L 48.074219 -38.710938 L 47.996094 -38.625 L 47.839844 -38.449219 L 47.761719 -38.359375 C 47.761719 -38.359375 47.84375 -38.363281 47.839844 -38.449219 L 47.761719 -38.359375 L 47.6875 -38.1875 Z M 39.484375 -26.023438 L 39.792969 -26.542969 L 39.796875 -26.457031 Z M 39.332031 -25.761719 L 39.484375 -26.023438 C 39.492188 -25.9375 39.410156 -25.851562 39.332031 -25.761719 Z M 47.992188 -38.707031 L 48.070312 -38.796875 C 48.070312 -38.796875 48.074219 -38.710938 47.992188 -38.707031 Z M 47.992188 -38.707031"/></g><g id="e"><path d="M 47.539062 -22.617188 C 47.140625 -25.273438 44.699219 -22.542969 43.90625 -21.746094 C 42.550781 -20.5 41.105469 -19.417969 39.75 -18.171875 C 35.832031 -14.859375 32.175781 -11.394531 28.515625 -7.929688 C 29.851562 -12.523438 31.941406 -17.15625 34.21875 -21.382812 C 34.671875 -22.242188 35.050781 -23.015625 34.828125 -24.007812 C 34.285156 -26.238281 31.230469 -26.992188 29.25 -26.546875 C 27.515625 -26.117188 27.394531 -25.273438 27.125 -24.085938 C 26.570312 -21.964844 24.253906 -19.996094 22.921875 -18.332031 C 22.375 -17.632812 18.714844 -12.660156 18.632812 -12.65625 C 18.882812 -12.671875 19.039062 -12.847656 19.203125 -12.941406 C 17.472656 -10.917969 14.746094 -8.761719 12.589844 -6.886719 C 11.714844 -6.085938 9.191406 -3.265625 7.746094 -3.691406 C 3.671875 -4.722656 11.050781 -21.191406 10.796875 -21.261719 C 10.539062 -21.332031 8.234375 -14.59375 7.734375 -13.0625 C 8.84375 -17.222656 10.375 -21.324219 11.996094 -25.261719 C 11.933594 -24.921875 11.71875 -24.242188 11.886719 -24.25 C 12.140625 -24.183594 13.242188 -27.003906 12.984375 -27.074219 C 12.902344 -27.070312 12.824219 -26.980469 12.738281 -26.976562 C 12.972656 -27.324219 13.378906 -27.515625 13.519531 -28.023438 C 13.710938 -29.121094 12.394531 -30.222656 11.457031 -30.503906 C 9.410156 -31.226562 7.136719 -29.929688 6.328125 -27.960938 C 6.09375 -27.613281 5.875 -27.015625 5.71875 -26.839844 C 5.496094 -26.328125 5.089844 -26.136719 4.78125 -25.617188 C 3.953125 -23.980469 3.550781 -22.121094 2.976562 -20.414062 C 2.765625 -19.648438 0.308594 -11.144531 0.730469 -11.085938 L 0.886719 -11.261719 C 0.75 -10.667969 0.703125 -9.996094 0.652344 -9.40625 C 0.480469 -9.480469 0.703125 -9.996094 0.539062 -9.988281 C -0.300781 -10.023438 -0.339844 -4.667969 -0.226562 -4.085938 C 0.0351562 -2.429688 1.234375 -0.402344 2.863281 0.34375 C 3.636719 0.71875 4.648438 0.832031 5.554688 0.613281 C 5.890625 0.597656 7.4375 -0.160156 6.855469 -0.125 L 7.347656 -0.320312 L 7.1875 -0.144531 C 7.277344 -0.0664062 10.207031 -1.566406 10.699219 -1.761719 C 13.0625 -2.894531 15.042969 -4.929688 16.691406 -6.859375 L 21.894531 -12.667969 C 23.078125 -13.988281 24.058594 -15.96875 25.335938 -17.042969 C 24.714844 -14.664062 24.09375 -12.289062 23.554688 -9.914062 C 22.789062 -7.113281 22.476562 -3.664062 21.277344 -1.085938 C 20.304688 0.972656 17.652344 2.960938 16.152344 4.632812 C 14.015625 6.84375 11.878906 9.054688 9.914062 11.335938 C 7.164062 14.585938 4.769531 18.230469 2.371094 21.792969 C -0.101562 25.527344 -3.492188 30.820312 0.0859375 34.972656 C 2.507812 37.9375 6.785156 39.625 10.484375 38.417969 C 13.855469 37.394531 15.035156 34.484375 16.558594 31.722656 C 21.410156 22.585938 23.765625 12.164062 26.3125 2.234375 C 26.738281 0.789062 26.933594 -1.734375 27.703125 -2.949219 C 28.472656 -4.160156 30.085938 -5.253906 31.035156 -6.226562 C 33.414062 -8.617188 35.882812 -10.929688 38.355469 -13.15625 L 45.292969 -19.3125 C 46.332031 -20.207031 47.792969 -21.039062 47.539062 -22.617188 Z M 14.050781 22.65625 L 14.054688 22.738281 L 13.757812 23.425781 L 13.761719 23.507812 C 13.679688 23.515625 13.683594 23.597656 13.683594 23.597656 C 13.6875 23.679688 13.613281 23.851562 13.613281 23.851562 C 12.886719 25.816406 11.988281 27.789062 11.007812 29.6875 C 10.171875 31.238281 9.054688 33.726562 7.332031 34.40625 C 4.0625 35.757812 3.507812 30.265625 3.90625 28.402344 C 4.910156 23.828125 8.03125 19.722656 10.671875 15.980469 C 13.382812 12.066406 16.28125 8.476562 19.605469 5.027344 C 17.921875 10.894531 16.242188 16.847656 14.050781 22.65625 Z M 18.824219 21.222656 C 19.101562 20.203125 19.628906 19.085938 20.15625 18.050781 C 19.738281 19.582031 19.402344 21.105469 18.570312 22.660156 L 17.890625 24.035156 C 18.175781 23.097656 18.453125 22.078125 18.824219 21.222656 Z M 21.160156 11.972656 L 19.859375 15.726562 C 19.988281 14.964844 20.105469 14.121094 20.414062 13.605469 C 20.707031 12.835938 21.300781 11.460938 21.082031 10.554688 C 21.1875 10.96875 21.304688 11.546875 21.160156 11.972656 Z M 18.882812 19.210938 L 19.1875 18.691406 C 19.113281 18.863281 19.039062 19.035156 18.882812 19.210938 Z M 18.882812 19.210938"/></g><g id="f"><path d="M 33.324219 -22.417969 L 33.320312 -22.503906 C 32.539062 -24.550781 29.332031 -18.9375 28.941406 -18.414062 C 26.363281 -15.089844 23.390625 -11.328125 19.476562 -9.523438 C 18.5 -8.96875 16.535156 -8.191406 15.972656 -9.332031 C 15.597656 -10.0625 15.832031 -11.832031 15.703125 -12.664062 C 15.476562 -13.738281 15.246094 -14.898438 14.691406 -15.871094 C 13.144531 -18.128906 11.644531 -16.457031 11.25 -14.511719 C 10.9375 -12.566406 11.058594 -10.398438 11.578125 -8.585938 C 11.800781 -7.59375 12.6875 -6.640625 12.910156 -5.648438 C 13.125 -4.824219 12.773438 -3.546875 12.652344 -2.703125 C 12.109375 1.089844 11.140625 4.742188 9.832031 8.328125 C 8.96875 10.886719 4.351562 22.773438 0.855469 17.023438 L 0.765625 16.945312 L 1.113281 17.175781 C 0.179688 13.878906 1.121094 9.730469 1.691406 6.433594 C 2.597656 1.613281 3.765625 -3.050781 5.097656 -7.726562 C 5.367188 -8.914062 5.71875 -10.105469 6.066406 -11.378906 C 6.5 -12.660156 6.648438 -13 7.433594 -13.964844 C 8.457031 -15.109375 9.394531 -16.332031 10.335938 -17.472656 C 13.304688 -21.316406 16.1875 -25.15625 18.902344 -29.074219 C 23.394531 -35.597656 27.429688 -42.847656 30.117188 -50.277344 C 31.492188 -54.199219 33.28125 -65.761719 25.734375 -64.511719 C 21.921875 -63.882812 18.972656 -58.195312 17.125 -55.25 C 14.59375 -51.09375 12.410156 -46.621094 10.476562 -42.25 C 6.894531 -34.351562 3.484375 -26.382812 1.601562 -17.996094 C -0.417969 -9.097656 -3.621094 -0.386719 -3.605469 8.984375 C -3.644531 12.835938 -3.332031 18.507812 0.230469 20.90625 C 4.316406 23.695312 8.273438 21.050781 10.410156 17.335938 C 12.855469 13.097656 13.640625 7.617188 14.71875 2.871094 C 14.988281 1.683594 15.171875 0.503906 15.359375 -0.679688 C 15.40625 -1.351562 15.339844 -4.109375 15.816406 -4.550781 C 16.210938 -4.992188 18.050781 -5.011719 18.542969 -5.203125 C 22.730469 -6.605469 27.132812 -10.28125 29.171875 -14.242188 C 30.394531 -16.402344 34.238281 -19.542969 33.324219 -22.417969 Z M 10.5 -25.097656 C 10.496094 -25.179688 10.574219 -25.265625 10.570312 -25.351562 L 10.574219 -25.265625 C 11.015625 -26.378906 11.082031 -26.71875 11.003906 -26.628906 C 13.539062 -33.714844 16.164062 -40.804688 19.304688 -47.589844 C 20.875 -50.9375 22.363281 -54.367188 24.453125 -57.410156 C 24.996094 -58.195312 25.90625 -59.917969 27.007812 -59.644531 C 30.230469 -58.902344 23.097656 -42.523438 22.035156 -40.542969 C 18.402344 -33.5625 13.914062 -26.957031 8.984375 -20.746094 Z M 1.011719 3.207031 C 1.28125 2.019531 1.550781 0.835938 1.910156 -0.273438 C 1.425781 1.59375 1.035156 3.625 0.808594 5.5625 C 0.5625 7.164062 -0.476562 11.070312 -0.316406 13.992188 C -0.933594 10.425781 0.101562 6.4375 1.011719 3.207031 Z M 10.789062 -25.949219 L 11.003906 -26.628906 C 11.007812 -26.546875 10.859375 -26.203125 10.789062 -25.949219 Z M 10.789062 -25.949219"/></g><g id="g"><path d="M 37.230469 -22.886719 C 37.230469 -22.886719 37.320312 -22.808594 37.226562 -22.96875 C 36.777344 -23.53125 36.21875 -23.082031 35.640625 -22.882812 C 33.25 -22.25 30.78125 -21.527344 28.300781 -20.972656 C 29.050781 -24.023438 29.796875 -27.246094 29.960938 -30.351562 C 30.0625 -31.527344 30.078125 -32.785156 29.761719 -33.9375 C 29.554688 -34.679688 29.261719 -35.417969 28.808594 -36.0625 C 28.808594 -36.0625 27.738281 -37.257812 28.027344 -36.605469 L 27.9375 -36.683594 L 27.566406 -37.332031 L 27.917969 -37.015625 C 27.976562 -37.523438 26.507812 -38.363281 26.507812 -38.363281 C 24.304688 -40.332031 21.382812 -41.761719 18.632812 -40.019531 C 16.9375 -38.921875 15.609375 -37.175781 14.535156 -35.441406 C 14.148438 -34.835938 13.769531 -34.144531 13.472656 -33.460938 C 13.175781 -32.773438 12.792969 -30.578125 12.3125 -30.214844 C 11.910156 -29.859375 10.664062 -29.707031 10.101562 -29.339844 C 9.285156 -28.960938 8.554688 -28.503906 7.917969 -27.964844 C 6.386719 -26.878906 5.210938 -25.390625 4.121094 -23.90625 C 2.269531 -21.128906 1.433594 -18.070312 0.160156 -15.320312 C -2.230469 -10.085938 1.058594 -3.574219 6.113281 -1.425781 C 7.738281 -0.761719 9.59375 -0.527344 11.253906 -0.785156 C 12.992188 -1.132812 14.609375 -2.144531 15.890625 -3.21875 C 17.089844 -4.203125 19.75 -6.023438 20.171875 -7.46875 C 20.167969 -7.554688 20.007812 -7.460938 19.769531 -7.195312 L 22.035156 -10.167969 C 22.121094 -10.085938 21.5 -9.21875 21.5 -9.21875 C 22.097656 -9 24.859375 -13.585938 25.171875 -13.9375 C 25.703125 -14.972656 26.226562 -16.085938 26.839844 -17.125 C 27.382812 -17.910156 27.21875 -17.816406 28.035156 -18.195312 C 27.957031 -18.109375 29.023438 -18.5 29.1875 -18.511719 C 30.097656 -18.726562 39.820312 -19.933594 37.230469 -22.886719 Z M 9.292969 -4.445312 L 9.210938 -4.441406 C 2.34375 -3.058594 9.542969 -18.179688 9.664062 -19.023438 L 9.203125 -18.246094 C 10.316406 -20.816406 11.375 -22.886719 11.921875 -23.585938 C 13.070312 -19.464844 17.664062 -18.125 21.359375 -17.828125 C 19.207031 -12.855469 15.074219 -5.851562 9.292969 -4.445312 Z M 24.457031 -28.457031 C 24 -26.089844 23.671875 -22.976562 22.535156 -20.820312 C 22.164062 -19.964844 22.398438 -20.226562 21.574219 -20.015625 C 21.082031 -19.820312 19.988281 -19.929688 19.484375 -19.984375 C 18.5625 -20.015625 17.46875 -20.125 16.769531 -20.671875 C 15.546875 -21.609375 15.625 -23.203125 15.714844 -24.628906 C 15.804688 -26.058594 16.148438 -27.414062 16.574219 -28.777344 C 16.796875 -29.292969 18.234375 -32.046875 17.957031 -32.535156 C 17.859375 -32.78125 17.023438 -31.230469 16.945312 -31.140625 C 17.394531 -32.085938 17.867188 -32.613281 18.253906 -33.222656 C 18.171875 -33.214844 18.25 -33.304688 18.324219 -33.476562 L 18.328125 -33.394531 L 18.402344 -33.5625 C 18.402344 -33.5625 18.398438 -33.648438 18.480469 -33.652344 C 19.640625 -35.390625 22.519531 -39.3125 24.332031 -36.820312 C 25.703125 -34.71875 24.757812 -30.566406 24.457031 -28.457031 Z M 18.402344 -33.5625 L 18.480469 -33.652344 C 18.484375 -33.570312 18.402344 -33.5625 18.402344 -33.5625 Z M 18.402344 -33.5625"/></g><g id="h"><path d="M 48.183594 -23.070312 L 48.179688 -23.152344 C 47.527344 -25.878906 44.027344 -21.085938 43.546875 -20.640625 C 41.277344 -17.835938 39.183594 -14.792969 37.175781 -11.753906 C 35.171875 -8.628906 33.25 -5.511719 31.164062 -2.386719 C 30.164062 -0.824219 29.15625 0.652344 27.976562 2.058594 C 27.589844 2.582031 26.664062 4.054688 25.914062 4.097656 C 22.996094 4.257812 24.601562 -7.628906 24.832031 -9.484375 C 25.152344 -12.765625 25.164062 -17.117188 27.109375 -19.816406 C 27.574219 -20.511719 32.847656 -28.082031 32.847656 -28.082031 C 32.675781 -28.15625 32.054688 -27.285156 31.664062 -26.761719 L 34.984375 -31.800781 L 35.214844 -32.148438 L 35.300781 -32.152344 L 35.214844 -32.148438 L 35.832031 -33.101562 C 35.921875 -33.023438 35.847656 -32.851562 35.773438 -32.679688 L 36.476562 -33.554688 L 38.492188 -36.511719 C 39.953125 -38.851562 41.320312 -41.351562 42.609375 -43.765625 C 44.652344 -47.726562 47.433594 -53.40625 45.507812 -57.984375 C 44.070312 -61.335938 39.445312 -61.75 36.421875 -60.414062 C 34.214844 -59.453125 32.390625 -57.597656 30.910156 -55.675781 C 30.132812 -54.542969 29.363281 -53.328125 28.683594 -52.039062 C 28.449219 -51.691406 27.511719 -48.960938 27.28125 -48.613281 L 27.363281 -48.617188 C 26.914062 -47.671875 26.464844 -46.726562 26.179688 -45.792969 C 26.3125 -46.46875 26.65625 -47.824219 26.972656 -48.09375 C 26.335938 -47.558594 25.882812 -45.105469 25.730469 -44.847656 C 22.941406 -37.746094 20.574219 -30.585938 18.976562 -23.136719 C 16.582031 -25.597656 12.75 -29.820312 8.917969 -28.019531 C 5.738281 -26.507812 3.507812 -22.953125 2.003906 -19.859375 C 0.648438 -17.105469 0.382812 -14.332031 -0.558594 -11.683594 C -2.234375 -7.15625 -2.652344 1.988281 3.929688 2.964844 C 5.953125 3.269531 7.71875 1.917969 9.246094 0.746094 C 11.96875 -1.496094 14.503906 -4.0625 16.867188 -6.703125 C 16.695312 -2.257812 16.144531 4.464844 19.925781 7.773438 C 24.59375 12.035156 28.679688 5.699219 31.167969 2.21875 C 34.347656 -2.308594 36.75 -7.296875 39.941406 -11.65625 C 41.5 -13.75 43.058594 -15.84375 44.710938 -17.773438 C 45.972656 -19.183594 48.550781 -21 48.183594 -23.070312 Z M 17.785156 -15.875 C 17.714844 -15.617188 17.726562 -15.453125 17.726562 -15.453125 C 17.503906 -13.433594 17.597656 -11.679688 16.257812 -10.183594 C 15.082031 -8.78125 13.816406 -7.453125 12.550781 -6.128906 C 11.363281 -4.894531 8.546875 -1.308594 6.617188 -1.367188 C 4.269531 -1.488281 5.726562 -6.925781 6.714844 -10.242188 C 5.648438 -6.839844 3.945312 -1.304688 6.707031 -1.289062 C 7.460938 -1.246094 8.675781 -1.984375 9.710938 -2.960938 C 8.761719 -1.988281 7.160156 -0.644531 6.132812 -1.089844 C 4.167969 -1.820312 5.574219 -6.667969 5.835938 -8.019531 C 6.707031 -11.917969 8.089844 -15.675781 9.734375 -19.28125 C 10.554688 -21.082031 11.734375 -23.992188 13.476562 -24.253906 L 13.074219 -23.980469 C 13.152344 -24.070312 13.234375 -24.074219 13.316406 -24.078125 C 13.894531 -24.277344 14.5 -23.894531 14.933594 -23.582031 C 16.0625 -22.890625 16.808594 -21.511719 17.617188 -20.46875 C 18.523438 -19.179688 18.019531 -17.726562 17.769531 -16.207031 Z M 30.15625 -35.886719 C 30.152344 -35.96875 30.144531 -36.136719 30.222656 -36.222656 L 30.21875 -36.304688 C 30.285156 -36.5625 30.367188 -36.648438 30.367188 -36.648438 L 30.363281 -36.734375 C 31.984375 -42.179688 33.777344 -47.632812 36.515625 -52.636719 C 37.195312 -53.929688 39.15625 -57.886719 41.132812 -56.90625 C 41.90625 -56.53125 42.132812 -55.457031 42.175781 -54.703125 C 42.785156 -49.71875 39.105469 -43.574219 36.824219 -39.429688 C 34.160156 -34.597656 31.160156 -29.832031 27.972656 -25.386719 L 29.703125 -27.410156 L 31.257812 -29.585938 L 27.304688 -23.84375 L 26.761719 -23.0625 L 26.449219 -22.710938 C 26.503906 -23.214844 26.894531 -23.738281 27.277344 -24.347656 C 27.121094 -24.171875 26.960938 -23.992188 26.886719 -23.824219 C 27.773438 -27.46875 28.746094 -31.121094 29.800781 -34.777344 C 29.722656 -34.6875 29.796875 -34.859375 29.859375 -35.199219 L 30.085938 -35.628906 C 30.082031 -35.714844 30.078125 -35.796875 30.15625 -35.886719 Z M 23.527344 -28.65625 C 23.382812 -28.230469 22.988281 -26.285156 22.75 -26.019531 C 22.753906 -25.9375 22.675781 -25.851562 22.59375 -25.84375 C 23.214844 -26.714844 22.738281 -27.777344 23.015625 -28.796875 C 23.15625 -29.308594 23.9375 -30.269531 24.070312 -30.949219 C 24.105469 -30.28125 23.753906 -29.089844 23.527344 -28.65625 Z M 11.535156 -4.820312 C 13.519531 -6.769531 15.414062 -8.796875 17.222656 -10.90625 C 17.117188 -9.8125 14.628906 -7.835938 13.757812 -6.949219 C 12.734375 -5.804688 11.542969 -4.652344 10.347656 -3.582031 L 10.261719 -3.578125 Z M 24.609375 -36.332031 C 24.332031 -35.3125 23.964844 -34.371094 23.515625 -33.425781 C 23.863281 -34.703125 24.042969 -35.964844 24.5625 -37.167969 C 25.011719 -38.113281 25.535156 -39.3125 25.890625 -40.417969 C 25.546875 -39.0625 24.957031 -37.605469 24.609375 -36.332031 Z M 30.085938 -35.628906 L 29.800781 -34.777344 C 29.796875 -34.859375 29.871094 -35.03125 29.859375 -35.199219 Z M 12.671875 -23.625 C 12.355469 -23.355469 12.121094 -23.007812 12.039062 -23.003906 C 12.207031 -23.015625 12.4375 -23.363281 12.671875 -23.625 Z M 15 -23.921875 C 15.171875 -23.847656 15.34375 -23.773438 15.519531 -23.613281 Z M 31.4375 -26.332031 C 31.429688 -26.414062 31.511719 -26.503906 31.589844 -26.589844 C 31.515625 -26.421875 31.4375 -26.332031 31.4375 -26.332031 Z M 31.589844 -26.589844 L 31.664062 -26.761719 C 31.667969 -26.679688 31.589844 -26.589844 31.589844 -26.589844 Z M 31.589844 -26.589844"/></g><clipPath id="a"><path d="M 48.191406 48.191406 L 326.441406 48.191406 L 326.441406 326.441406 L 48.191406 326.441406 Z M 48.191406 48.191406"/></clipPath><clipPath id="b"><path d="M 101.710938 74 L 159.460938 74 L 159.460938 158.542969 L 101.710938 158.542969 Z M 101.710938 74"/></clipPath><clipPath id="c"><path d="M 77.488281 209.019531 L 318.988281 209.019531 L 318.988281 283 L 77.488281 283 Z M 77.488281 209.019531"/></clipPath></defs><g clip-path="url(#a)"><path fill="#FFF" d="M 187.316406 48.191406 C 110.601562 48.191406 48.191406 110.601562 48.191406 187.316406 C 48.191406 264.027344 110.601562 326.441406 187.316406 326.441406 C 264.027344 326.441406 326.441406 264.027344 326.441406 187.316406 C 326.441406 110.601562 264.027344 48.191406 187.316406 48.191406 Z M 187.316406 48.191406"/></g><g clip-path="url(#b)"><path fill="#7ED957" d="M 159.125 123.773438 C 159.378906 122.492188 159.019531 120.972656 158.832031 119.738281 C 158.5625 117.882812 157.945312 116.058594 156.804688 114.539062 C 155.371094 112.632812 152.867188 111.367188 150.410156 111.164062 C 151.195312 107.636719 150.476562 102.457031 146.726562 101.121094 C 147.050781 99.871094 147.085938 98.574219 146.742188 97.257812 C 145.804688 93.59375 142.039062 91.941406 140.078125 89.085938 C 139.972656 87.921875 139.667969 86.757812 139.328125 85.644531 C 139.003906 84.53125 138.78125 83.296875 138.21875 82.269531 C 138.148438 82.148438 138.03125 82.066406 137.894531 82.03125 C 137.3125 79.855469 134.570312 78.691406 132.472656 78.570312 C 131.089844 78.488281 129.640625 78.960938 128.636719 79.921875 C 128.515625 80.039062 128.394531 80.175781 128.292969 80.308594 C 127.015625 78.65625 126.128906 76.496094 127.542969 74.757812 C 127.832031 74.402344 127.476562 73.792969 127.015625 74.082031 C 125.308594 75.144531 124.253906 76.613281 124.714844 78.707031 C 125.003906 80.007812 125.683594 81.121094 126.621094 81.996094 C 124.527344 82.234375 123.09375 85.507812 122.957031 87.464844 C 122.835938 89.222656 123.230469 91.144531 124.421875 92.496094 C 124.695312 92.816406 125.054688 93.121094 125.464844 93.390625 C 123.691406 94.269531 121.882812 95.367188 120.792969 96.988281 C 119.851562 98.371094 119.699219 100.414062 120.859375 101.578125 C 117.296875 103.316406 114.191406 105.882812 115.4375 109.765625 C 115.351562 109.78125 115.285156 109.796875 115.199219 109.816406 C 111.703125 110.589844 106.535156 112.886719 106.960938 117.207031 C 106.960938 117.273438 106.980469 117.359375 106.996094 117.425781 C 104.285156 118.914062 101.796875 122.269531 101.949219 124.972656 C 101.964844 125.140625 102 125.308594 102.085938 125.460938 C 102.015625 126.457031 102.222656 127.539062 102.289062 128.515625 C 102.375 129.648438 102.476562 130.796875 102.546875 131.925781 C 102.683594 134.136719 102.800781 136.332031 102.972656 138.542969 C 103.332031 143.066406 104.40625 147.554688 104.4375 152.113281 C 104.4375 153.160156 105.308594 153.667969 106.125 153.632812 C 107.578125 155.355469 110.558594 155.996094 112.539062 156.503906 C 116.765625 157.597656 121.320312 158.207031 125.667969 158.359375 C 130.5625 158.542969 135.488281 158.105469 140.296875 157.328125 C 144.542969 156.636719 149.113281 155.558594 152.335938 152.550781 C 152.710938 152.199219 152.832031 151.808594 152.796875 151.457031 C 153.070312 150.847656 153.15625 150.121094 153.34375 149.480469 C 153.683594 148.332031 154.058594 147.203125 154.433594 146.070312 C 155.167969 143.824219 155.746094 141.582031 156.328125 139.300781 C 157.554688 134.425781 159.125 129.308594 159.074219 124.230469 C 159.140625 124.078125 159.140625 123.925781 159.125 123.773438 Z M 130.816406 82.046875 C 130.851562 82.015625 130.902344 81.980469 130.9375 81.945312 C 131.140625 82.046875 131.398438 82.097656 131.6875 82.082031 C 132.488281 82.03125 134.109375 81.863281 134.65625 82.65625 C 134.894531 83.011719 134.875 83.464844 134.722656 83.921875 C 133.5625 82.839844 131.464844 82.792969 129.828125 83.3125 C 130.167969 82.910156 130.390625 82.4375 130.816406 82.046875 Z M 122.992188 98.875 C 123.367188 98.03125 124.304688 97.390625 125.054688 96.902344 C 126.792969 95.789062 128.738281 95.046875 130.5625 94.082031 C 132.984375 92.816406 135.320312 91.027344 136.972656 88.867188 C 137.195312 88.597656 137.398438 88.292969 137.605469 87.972656 C 137.691406 88.429688 137.757812 88.882812 137.757812 89.304688 C 137.808594 91.667969 136.425781 93.628906 134.757812 95.195312 C 132.402344 97.410156 129.792969 98.304688 126.792969 99.300781 C 125.703125 99.652344 124.339844 100.109375 122.90625 100.667969 C 122.820312 100.058594 122.734375 99.46875 122.992188 98.875 Z M 122.324219 104.582031 C 124.933594 103.25 127.714844 102.320312 130.441406 101.222656 C 133.578125 99.957031 136.324219 97.933594 138.304688 95.164062 C 139.070312 94.082031 139.652344 92.867188 139.941406 91.585938 C 140.828125 92.683594 141.953125 93.695312 142.804688 94.65625 C 144.578125 96.683594 145.125 99.128906 143.914062 101.578125 C 142.890625 103.652344 141.066406 105.359375 139.085938 106.523438 C 135.386719 108.699219 130.75 108.871094 126.554688 108.988281 C 123.808594 109.070312 121.03125 109.019531 118.285156 109.308594 C 117.925781 106.945312 120.550781 105.492188 122.324219 104.582031 Z M 112.519531 114.371094 C 114.023438 113.527344 115.777344 113.105469 117.464844 112.851562 C 121.371094 112.246094 125.378906 112.515625 129.300781 112.210938 C 133.546875 111.890625 137.859375 110.84375 141.339844 108.328125 C 143.007812 107.113281 144.613281 105.492188 145.667969 103.652344 C 146.796875 104.648438 147.496094 105.664062 147.734375 107.28125 C 147.953125 108.871094 147.75 110.625 147.035156 112.078125 C 145.585938 115.011719 142.292969 116.160156 139.257812 116.703125 C 135.917969 117.292969 132.488281 117.175781 129.113281 117.140625 C 125.703125 117.089844 122.410156 116.414062 119.035156 116.058594 C 116.324219 115.773438 112.980469 115.433594 110.289062 116.449219 C 110.882812 115.605469 111.566406 114.910156 112.519531 114.371094 Z M 106.46875 121.105469 C 107.472656 119.976562 108.941406 119.183594 109.828125 117.96875 C 113.1875 117.257812 117.039062 118.390625 120.261719 119.011719 C 122.242188 119.402344 124.21875 119.859375 126.230469 120.058594 C 127.867188 120.230469 129.539062 120.179688 131.175781 120.179688 C 137.757812 120.210938 147.101562 119.773438 149.933594 112.734375 C 151.722656 113.796875 153.71875 114.421875 154.910156 116.363281 C 155.796875 117.816406 156.105469 119.519531 156.394531 121.175781 C 156.496094 121.730469 156.566406 122.320312 156.683594 122.863281 C 154.128906 125.730469 150.070312 126.878906 146.453125 127.875 C 141.714844 129.15625 136.71875 129.292969 131.839844 129.105469 C 126.539062 128.90625 121.21875 128.28125 116 127.453125 C 113.679688 127.082031 111.328125 126.710938 109.027344 126.238281 C 107.882812 126 106.773438 125.699219 105.648438 125.410156 C 105.207031 125.292969 104.746094 125.125 104.300781 124.988281 C 104.984375 123.65625 105.410156 122.269531 106.46875 121.105469 Z M 145.175781 147.183594 C 144.851562 149.144531 144.203125 151.269531 144.082031 153.3125 C 143.144531 153.53125 142.207031 153.71875 141.269531 153.886719 C 141.441406 152.804688 141.527344 151.691406 141.730469 150.644531 C 142.105469 148.671875 142.191406 146.710938 142.277344 144.703125 C 142.378906 142.390625 142.445312 140.078125 142.566406 137.765625 C 142.6875 135.773438 142.957031 133.664062 142.71875 131.671875 C 144.714844 131.371094 146.710938 130.945312 148.652344 130.355469 C 148.246094 131.320312 148.074219 132.433594 147.835938 133.445312 C 147.308594 135.691406 146.691406 137.902344 146.25 140.144531 C 145.804688 142.492188 145.566406 144.855469 145.175781 147.183594 Z M 117.925781 154.511719 C 117.5 150.679688 117.570312 146.863281 117.347656 143 C 117.210938 140.636719 117.003906 138.289062 116.800781 135.925781 C 116.648438 134.203125 116.628906 132.3125 116.222656 130.59375 C 118.011719 130.898438 119.820312 131.132812 121.644531 131.351562 C 121.234375 132.464844 121.199219 133.730469 121.183594 134.914062 C 121.148438 137.039062 120.945312 139.183594 120.792969 141.3125 C 120.449219 145.734375 119.886719 150.257812 120.074219 154.714844 C 119.359375 154.664062 118.644531 154.59375 117.925781 154.511719 Z M 123.09375 142.15625 C 123.09375 140.046875 123.09375 137.933594 122.921875 135.824219 C 122.820312 134.425781 122.324219 132.871094 122.496094 131.453125 C 123.433594 131.554688 124.355469 131.65625 125.292969 131.742188 C 125.871094 131.792969 126.46875 131.859375 127.066406 131.910156 C 126.65625 133.75 126.65625 135.792969 126.488281 137.664062 C 126.28125 139.808594 126.042969 141.96875 125.871094 144.113281 C 125.703125 146.257812 125.496094 148.398438 125.429688 150.542969 C 125.378906 151.945312 125.15625 153.617188 125.394531 155.101562 C 124.542969 155.066406 123.707031 155.035156 122.855469 154.964844 C 123.09375 150.710938 123.09375 146.410156 123.09375 142.15625 Z M 128.15625 150.542969 C 128.261719 148.398438 128.3125 146.257812 128.378906 144.113281 C 128.449219 141.96875 128.480469 139.808594 128.464844 137.664062 C 128.449219 135.859375 128.550781 133.816406 128.207031 132.011719 C 130.101562 132.144531 131.996094 132.246094 133.886719 132.246094 C 133.597656 133.125 133.597656 134.136719 133.5625 135.015625 C 133.496094 137.277344 133.171875 139.539062 132.949219 141.800781 C 132.488281 146.136719 131.789062 150.628906 131.839844 155 C 130.5625 155.066406 129.265625 155.117188 127.988281 155.117188 C 128.242188 153.648438 128.089844 151.960938 128.15625 150.542969 Z M 135.320312 132.246094 C 137.433594 132.214844 139.53125 132.09375 141.613281 131.824219 C 140.621094 133.664062 140.265625 135.925781 139.921875 137.953125 C 139.546875 140.195312 139.273438 142.441406 139.105469 144.703125 C 138.953125 146.710938 138.765625 148.671875 138.421875 150.660156 C 138.21875 151.84375 137.894531 153.160156 137.980469 154.410156 C 136.871094 154.5625 135.761719 154.695312 134.65625 154.796875 C 135.082031 147.304688 136.257812 139.742188 135.320312 132.246094 Z M 104.8125 131.351562 C 104.625 130.050781 104.507812 128.550781 104.183594 127.167969 C 104.730469 127.503906 105.324219 127.773438 105.804688 127.960938 C 106.707031 128.332031 107.644531 128.617188 108.582031 128.886719 C 108.34375 130.726562 108.734375 132.753906 108.890625 134.542969 C 109.078125 136.769531 109.230469 138.980469 109.453125 141.191406 C 109.671875 143.472656 110.046875 145.714844 110.234375 147.996094 C 110.390625 149.816406 110.132812 151.742188 110.441406 153.546875 C 109.433594 153.296875 108.460938 152.941406 107.578125 152.46875 C 107.59375 152.351562 107.609375 152.214844 107.609375 152.078125 C 107.492188 147.320312 106.160156 142.695312 105.617188 137.984375 C 105.359375 135.792969 105.136719 133.582031 104.8125 131.351562 Z M 113.699219 154.121094 C 113.699219 154.054688 113.679688 153.988281 113.664062 153.9375 C 113.664062 153.9375 113.679688 153.9375 113.679688 153.9375 C 113.1875 151.757812 113.355469 149.480469 113.050781 147.269531 C 112.742188 145.042969 112.316406 142.832031 112.007812 140.601562 C 111.71875 138.492188 111.394531 136.382812 111.003906 134.273438 C 110.714844 132.667969 110.457031 130.761719 109.757812 129.207031 C 110.289062 129.34375 110.816406 129.480469 111.328125 129.597656 C 112.605469 129.917969 113.917969 130.1875 115.214844 130.425781 C 114.804688 132.195312 114.941406 134.152344 114.976562 135.925781 C 115.027344 138.355469 115.164062 140.789062 115.265625 143.21875 C 115.402344 146.796875 114.855469 150.746094 115.761719 154.289062 C 115.25 154.242188 114.753906 154.207031 114.242188 154.15625 C 114.054688 154.15625 113.886719 154.140625 113.699219 154.121094 Z M 153.496094 139.082031 C 152.867188 141.328125 152.167969 143.523438 151.398438 145.734375 C 150.9375 147.050781 149.898438 149.160156 149.949219 150.796875 C 149.164062 151.355469 148.328125 151.828125 147.441406 152.199219 C 147.699219 150.964844 147.851562 149.699219 148.023438 148.519531 C 148.382812 146.171875 148.585938 143.808594 148.996094 141.460938 C 149.675781 137.53125 150.359375 133.679688 150.699219 129.714844 C 152.917969 128.988281 155.371094 128.0625 157.179688 126.574219 C 155.730469 130.675781 154.65625 134.949219 153.496094 139.082031 Z M 153.496094 139.082031"/></g><g clip-path="url(#c)"><path fill="#7ED957" d="M 101.523438 262.246094 C 104.3125 263.246094 106.902344 264.226562 109.546875 265.09375 C 112.1875 265.957031 114.292969 267.640625 116.3125 269.421875 C 117.75 270.683594 118.21875 272.351562 117.550781 274.199219 C 117.117188 275.414062 116.648438 276.660156 116.03125 277.792969 C 113.757812 281.921875 109.980469 283.269531 105.46875 282.035156 C 99.582031 280.4375 97.777344 278.140625 96.757812 270.953125 C 96.542969 269.4375 96.726562 267.871094 96.726562 266.074219 C 95.707031 266.207031 94.652344 266.226562 93.648438 266.472656 C 89.722656 267.421875 85.996094 268.738281 82.871094 271.5 C 81.78125 272.449219 80.246094 272.949219 78.859375 273.480469 C 77.9375 273.832031 77.671875 273.464844 77.988281 272.515625 C 78.773438 270.101562 80.34375 267.988281 82.453125 266.539062 C 86.964844 263.394531 91.8125 261.214844 97.496094 261.480469 C 97.8125 261.496094 98.328125 261.164062 98.445312 260.863281 C 101.421875 253.808594 105.953125 247.898438 111.214844 242.355469 C 117.21875 236.03125 124.4375 230.957031 132.445312 227.445312 C 139.398438 224.363281 146.417969 221.070312 153.886719 219.472656 C 165.355469 217.023438 176.9375 216.859375 188.554688 218.804688 C 200.652344 220.820312 212.519531 223.796875 224.421875 226.628906 C 232.3125 228.507812 240.214844 230.457031 248.324219 230.921875 C 254.558594 231.289062 260.839844 231.1875 267.09375 230.988281 C 272.074219 230.839844 277.054688 230.421875 282 229.757812 C 287.933594 228.957031 293.382812 226.496094 298.867188 224.265625 C 306.003906 221.386719 311.804688 216.839844 316.03125 210.382812 C 316.484375 209.699219 316.96875 209.019531 317.886719 209.402344 C 318.804688 209.785156 318.707031 210.683594 318.523438 211.414062 C 318.019531 213.613281 316.933594 215.644531 315.378906 217.289062 C 311 221.882812 306.1875 225.863281 300.1875 228.242188 C 294.335938 230.574219 288.585938 233.203125 282.285156 234.117188 C 278.207031 234.699219 274.078125 235.132812 269.949219 235.347656 C 263.867188 235.648438 257.765625 235.914062 251.664062 235.800781 C 242.65625 235.632812 233.898438 233.585938 225.15625 231.621094 C 215.394531 229.457031 205.683594 226.945312 195.890625 224.878906 C 187.851562 223.183594 179.726562 221.800781 171.421875 222.066406 C 165.570312 222.265625 159.570312 222.101562 154.003906 223.863281 C 142.574219 227.492188 130.890625 230.789062 121.09375 238.128906 C 113.339844 243.9375 106.6875 250.8125 102.523438 259.734375 C 102.140625 260.53125 101.875 261.382812 101.523438 262.246094 Z M 100.417969 266.789062 C 99.765625 269.453125 100.269531 271.816406 101.019531 274.164062 C 102.023438 277.226562 104.914062 279.105469 108.324219 278.957031 C 111.285156 278.824219 113.023438 277.175781 113.839844 273.714844 C 113.855469 273.679688 113.890625 273.632812 113.875 273.597656 C 113.691406 273.117188 113.65625 272.449219 113.304688 272.167969 C 109.59375 269.136719 105.132812 267.855469 100.417969 266.789062 Z M 100.417969 266.789062"/></g><g fill="#737373"><use x="64.29" y="216.994" xmlns:xlink="http://www.w3.org/1999/xlink" xlink:href="#d" xlink:type="simple" xlink:actuate="onLoad" xlink:show="embed"/></g><g fill="#737373"><use x="133.778" y="213.168" xmlns:xlink="http://www.w3.org/1999/xlink" xlink:href="#e" xlink:type="simple" xlink:actuate="onLoad" xlink:show="embed"/></g><g fill="#737373"><use x="176.321" y="210.826" xmlns:xlink="http://www.w3.org/1999/xlink" xlink:href="#f" xlink:type="simple" xlink:actuate="onLoad" xlink:show="embed"/></g><g fill="#737373"><use x="204.767" y="209.26" xmlns:xlink="http://www.w3.org/1999/xlink" xlink:href="#g" xlink:type="simple" xlink:actuate="onLoad" xlink:show="embed"/></g><g fill="#737373"><use x="237.384" y="207.464" xmlns:xlink="http://www.w3.org/1999/xlink" xlink:href="#g" xlink:type="simple" xlink:actuate="onLoad" xlink:show="embed"/></g><g fill="#737373"><use x="270" y="205.669" xmlns:xlink="http://www.w3.org/1999/xlink" xlink:href="#h" xlink:type="simple" xlink:actuate="onLoad" xlink:show="embed"/></g></svg>