<svg xmlns="http://www.w3.org/2000/svg" width="150" viewBox="0 0 150 150" height="150" version="1.0"><defs><clipPath id="a"><path d="M 24.410156 0 L 125.660156 0 L 125.660156 150 L 24.410156 150 Z M 24.410156 0"/></clipPath></defs><g clip-path="url(#a)"><path fill="#7ED957" d="M 125.0625 88.457031 C 125.511719 86.1875 124.882812 83.5 124.554688 81.320312 C 124.078125 78.03125 123 74.804688 121 72.117188 C 118.488281 68.742188 114.09375 66.5 109.789062 66.140625 C 111.164062 59.898438 109.90625 50.726562 103.328125 48.367188 C 103.898438 46.15625 103.957031 43.855469 103.359375 41.527344 C 101.714844 35.042969 95.109375 32.113281 91.671875 27.066406 C 91.492188 25.003906 90.953125 22.945312 90.355469 20.972656 C 89.789062 19 89.398438 16.820312 88.414062 14.996094 C 88.292969 14.789062 88.082031 14.636719 87.84375 14.578125 C 86.828125 10.726562 82.015625 8.664062 78.335938 8.453125 C 75.914062 8.304688 73.375 9.140625 71.609375 10.84375 C 71.402344 11.054688 71.191406 11.292969 71.011719 11.53125 C 68.769531 8.605469 67.214844 4.78125 69.699219 1.703125 C 70.207031 1.074219 69.578125 0 68.769531 0.507812 C 65.78125 2.390625 63.929688 4.988281 64.734375 8.695312 C 65.242188 10.992188 66.4375 12.964844 68.082031 14.519531 C 64.40625 14.9375 61.894531 20.734375 61.65625 24.199219 C 61.445312 27.304688 62.132812 30.710938 64.226562 33.101562 C 64.707031 33.667969 65.332031 34.207031 66.050781 34.683594 C 62.941406 36.238281 59.773438 38.179688 57.859375 41.046875 C 56.214844 43.496094 55.945312 47.113281 57.980469 49.171875 C 51.730469 52.25 46.289062 56.792969 48.472656 63.664062 C 48.324219 63.691406 48.203125 63.722656 48.054688 63.753906 C 41.925781 65.125 32.867188 69.1875 33.613281 76.835938 C 33.613281 76.957031 33.644531 77.105469 33.675781 77.226562 C 28.921875 79.855469 24.554688 85.800781 24.824219 90.578125 C 24.855469 90.878906 24.914062 91.175781 25.0625 91.445312 C 24.945312 93.207031 25.304688 95.121094 25.421875 96.851562 C 25.574219 98.855469 25.75 100.886719 25.871094 102.886719 C 26.109375 106.800781 26.320312 110.683594 26.617188 114.597656 C 27.246094 122.605469 29.128906 130.550781 29.191406 138.617188 C 29.191406 140.46875 30.714844 141.367188 32.148438 141.304688 C 34.691406 144.355469 39.921875 145.488281 43.390625 146.386719 C 50.804688 148.328125 58.785156 149.402344 66.410156 149.671875 C 74.988281 150 83.628906 149.222656 92.058594 147.847656 C 99.503906 146.625 107.515625 144.710938 113.164062 139.394531 C 113.824219 138.765625 114.03125 138.078125 113.972656 137.453125 C 114.449219 136.378906 114.601562 135.09375 114.929688 133.957031 C 115.527344 131.925781 116.183594 129.925781 116.84375 127.921875 C 118.128906 123.949219 119.144531 119.976562 120.160156 115.941406 C 122.3125 107.308594 125.0625 98.257812 124.972656 89.265625 C 125.09375 88.996094 125.09375 88.726562 125.0625 88.457031 Z M 75.4375 14.609375 C 75.496094 14.550781 75.585938 14.488281 75.648438 14.429688 C 76.003906 14.609375 76.453125 14.699219 76.960938 14.667969 C 78.367188 14.578125 81.207031 14.28125 82.164062 15.683594 C 82.582031 16.3125 82.554688 17.117188 82.285156 17.925781 C 80.25 16.011719 76.574219 15.921875 73.703125 16.847656 C 74.300781 16.132812 74.691406 15.296875 75.4375 14.609375 Z M 61.714844 44.394531 C 62.375 42.898438 64.019531 41.765625 65.332031 40.898438 C 68.382812 38.925781 71.789062 37.613281 74.988281 35.910156 C 79.234375 33.667969 83.328125 30.5 86.230469 26.679688 C 86.617188 26.199219 86.976562 25.664062 87.335938 25.09375 C 87.484375 25.902344 87.605469 26.707031 87.605469 27.453125 C 87.695312 31.636719 85.273438 35.101562 82.34375 37.882812 C 78.21875 41.792969 73.644531 43.378906 68.382812 45.140625 C 66.46875 45.769531 64.078125 46.574219 61.566406 47.558594 C 61.417969 46.484375 61.265625 45.4375 61.714844 44.394531 Z M 60.550781 54.492188 C 65.125 52.132812 69.996094 50.488281 74.78125 48.546875 C 80.28125 46.304688 85.09375 42.71875 88.5625 37.820312 C 89.90625 35.910156 90.921875 33.757812 91.433594 31.488281 C 92.984375 33.429688 94.960938 35.222656 96.453125 36.925781 C 99.5625 40.511719 100.519531 44.839844 98.398438 49.171875 C 96.605469 52.847656 93.40625 55.867188 89.9375 57.925781 C 83.449219 61.78125 75.316406 62.078125 67.964844 62.289062 C 63.152344 62.4375 58.277344 62.347656 53.464844 62.855469 C 52.835938 58.671875 57.441406 56.105469 60.550781 54.492188 Z M 43.359375 71.820312 C 45.992188 70.324219 49.070312 69.578125 52.03125 69.128906 C 58.875 68.054688 65.902344 68.53125 72.777344 67.996094 C 80.222656 67.425781 87.785156 65.574219 93.882812 61.125 C 96.8125 58.972656 99.621094 56.105469 101.476562 52.847656 C 103.449219 54.609375 104.675781 56.402344 105.09375 59.269531 C 105.484375 62.078125 105.125 65.1875 103.867188 67.753906 C 101.328125 72.953125 95.558594 74.984375 90.234375 75.941406 C 84.375 76.988281 78.367188 76.777344 72.449219 76.71875 C 66.46875 76.628906 60.699219 75.433594 54.78125 74.804688 C 50.027344 74.296875 44.167969 73.699219 39.445312 75.492188 C 40.488281 74 41.6875 72.773438 43.359375 71.820312 Z M 32.746094 83.738281 C 34.511719 81.738281 37.082031 80.332031 38.636719 78.179688 C 44.527344 76.925781 51.28125 78.929688 56.933594 80.035156 C 60.398438 80.722656 63.867188 81.527344 67.394531 81.886719 C 70.265625 82.183594 73.195312 82.09375 76.066406 82.09375 C 87.605469 82.15625 103.988281 81.378906 108.949219 68.921875 C 112.089844 70.800781 115.585938 71.90625 117.679688 75.34375 C 119.234375 77.914062 119.773438 80.929688 120.28125 83.859375 C 120.460938 84.84375 120.578125 85.890625 120.789062 86.84375 C 116.304688 91.925781 109.191406 93.957031 102.851562 95.71875 C 94.539062 97.988281 85.78125 98.226562 77.230469 97.898438 C 67.933594 97.539062 58.605469 96.433594 49.457031 94.972656 C 45.394531 94.3125 41.265625 93.65625 37.230469 92.820312 C 35.230469 92.402344 33.285156 91.863281 31.3125 91.355469 C 30.535156 91.148438 29.726562 90.847656 28.949219 90.609375 C 30.144531 88.25 30.894531 85.800781 32.746094 83.738281 Z M 100.609375 129.894531 C 100.042969 133.359375 98.90625 137.125 98.695312 140.738281 C 97.050781 141.128906 95.40625 141.457031 93.761719 141.753906 C 94.0625 139.84375 94.210938 137.871094 94.570312 136.019531 C 95.226562 132.523438 95.378906 129.058594 95.527344 125.503906 C 95.707031 121.410156 95.828125 117.316406 96.035156 113.222656 C 96.246094 109.699219 96.722656 105.964844 96.304688 102.441406 C 99.800781 101.902344 103.300781 101.15625 106.707031 100.109375 C 105.992188 101.8125 105.691406 103.785156 105.273438 105.578125 C 104.347656 109.550781 103.269531 113.464844 102.492188 117.4375 C 101.714844 121.589844 101.296875 125.773438 100.609375 129.894531 Z M 52.835938 142.859375 C 52.089844 136.078125 52.210938 129.328125 51.820312 122.484375 C 51.582031 118.304688 51.222656 114.152344 50.863281 109.96875 C 50.59375 106.921875 50.566406 103.574219 49.847656 100.527344 C 52.984375 101.066406 56.15625 101.484375 59.355469 101.871094 C 58.636719 103.84375 58.578125 106.085938 58.546875 108.175781 C 58.488281 111.941406 58.128906 115.734375 57.859375 119.5 C 57.261719 127.324219 56.273438 135.332031 56.605469 143.21875 C 55.347656 143.128906 54.09375 143.007812 52.835938 142.859375 Z M 61.894531 120.992188 C 61.894531 117.257812 61.894531 113.523438 61.597656 109.789062 C 61.417969 107.308594 60.550781 104.5625 60.847656 102.050781 C 62.492188 102.230469 64.105469 102.410156 65.75 102.558594 C 66.769531 102.648438 67.8125 102.769531 68.859375 102.859375 C 68.144531 106.113281 68.144531 109.730469 67.84375 113.046875 C 67.484375 116.839844 67.066406 120.664062 66.769531 124.457031 C 66.46875 128.25 66.109375 132.046875 65.992188 135.839844 C 65.902344 138.320312 65.511719 141.277344 65.929688 143.90625 C 64.4375 143.847656 62.972656 143.785156 61.476562 143.667969 C 61.894531 136.136719 61.894531 128.519531 61.894531 120.992188 Z M 70.773438 135.839844 C 70.953125 132.046875 71.042969 128.25 71.164062 124.457031 C 71.28125 120.664062 71.34375 116.839844 71.3125 113.046875 C 71.28125 109.847656 71.460938 106.234375 70.863281 103.039062 C 74.183594 103.277344 77.5 103.457031 80.820312 103.457031 C 80.3125 105.007812 80.3125 106.800781 80.25 108.355469 C 80.132812 112.359375 79.5625 116.359375 79.175781 120.363281 C 78.367188 128.042969 77.140625 135.988281 77.230469 143.726562 C 74.988281 143.847656 72.71875 143.933594 70.476562 143.933594 C 70.921875 141.335938 70.65625 138.347656 70.773438 135.839844 Z M 83.328125 103.457031 C 87.035156 103.394531 90.714844 103.1875 94.363281 102.707031 C 92.628906 105.964844 92 109.96875 91.402344 113.554688 C 90.742188 117.527344 90.265625 121.5 89.964844 125.503906 C 89.699219 129.058594 89.367188 132.523438 88.769531 136.046875 C 88.414062 138.140625 87.84375 140.46875 87.992188 142.679688 C 86.050781 142.949219 84.105469 143.1875 82.164062 143.367188 C 82.910156 130.105469 84.972656 116.71875 83.328125 103.457031 Z M 29.847656 101.871094 C 29.519531 99.570312 29.308594 96.914062 28.742188 94.464844 C 29.699219 95.0625 30.746094 95.539062 31.582031 95.867188 C 33.164062 96.523438 34.808594 97.03125 36.453125 97.511719 C 36.035156 100.765625 36.722656 104.351562 36.992188 107.519531 C 37.320312 111.460938 37.589844 115.375 37.980469 119.289062 C 38.367188 123.320312 39.023438 127.296875 39.355469 131.328125 C 39.625 134.554688 39.175781 137.960938 39.710938 141.15625 C 37.949219 140.710938 36.246094 140.082031 34.691406 139.246094 C 34.71875 139.035156 34.75 138.796875 34.75 138.558594 C 34.539062 130.132812 32.210938 121.949219 31.253906 113.613281 C 30.804688 109.730469 30.414062 105.816406 29.847656 101.871094 Z M 45.421875 142.171875 C 45.421875 142.054688 45.394531 141.933594 45.363281 141.84375 C 45.363281 141.84375 45.394531 141.84375 45.394531 141.84375 C 44.527344 137.992188 44.824219 133.957031 44.285156 130.042969 C 43.75 126.101562 43 122.1875 42.464844 118.242188 C 41.953125 114.507812 41.386719 110.773438 40.699219 107.039062 C 40.191406 104.203125 39.742188 100.828125 38.515625 98.078125 C 39.445312 98.316406 40.371094 98.554688 41.265625 98.765625 C 43.507812 99.332031 45.8125 99.8125 48.082031 100.230469 C 47.367188 103.367188 47.605469 106.832031 47.664062 109.96875 C 47.753906 114.269531 47.992188 118.570312 48.171875 122.875 C 48.414062 129.207031 47.457031 136.199219 49.039062 142.472656 C 48.144531 142.382812 47.277344 142.320312 46.378906 142.234375 C 46.050781 142.234375 45.75 142.203125 45.421875 142.171875 Z M 115.199219 115.554688 C 114.09375 119.527344 112.867188 123.410156 111.519531 127.324219 C 110.714844 129.65625 108.890625 133.390625 108.980469 136.289062 C 107.605469 137.273438 106.140625 138.109375 104.585938 138.765625 C 105.035156 136.585938 105.304688 134.347656 105.601562 132.253906 C 106.230469 128.101562 106.589844 123.917969 107.304688 119.765625 C 108.5 112.804688 109.699219 105.996094 110.296875 98.972656 C 114.183594 97.691406 118.488281 96.046875 121.65625 93.417969 C 119.113281 100.675781 117.230469 108.234375 115.199219 115.554688 Z M 115.199219 115.554688"/></g></svg>